<?xml version="1.0" encoding="UTF-8"?>
<svg id="Capa_1" data-name="Capa 1" xmlns="http://www.w3.org/2000/svg" viewBox="0 0 40.36 39.94">
  <defs>
    <style>
      .cls-1 {
        fill: #b4a291;
      }
    </style>
  </defs>
  <path class="cls-1" d="M40.2,18.81c.1.32.14.74-.07,1.02.19.32.15.83.08,1.22-.15,9.27-7.15,17.1-16.06,18.89-2.22-2.01-3.42-4.68-3.61-7.49l-.08-1.63c.41-2.48,1.28-4.58,2.83-6.47,1.76-2.14,5.51-3.96,8.42-3.86.2-.06.32-.23.27-.35-.23-.63-4.19.24-7.88-3.45-.13-.26-.31-.58-.63-.55-3.37-3.76-2.76-7.49-3.18-7.74-.08-.05-.25-.02-.37.05-.08.04.03,4.51-3,7.5-.31.12-.51.31-.62.64-3.62,3.98-8.27,2.83-7.92,3.68.03.07.1.22.26.23,5.96.15,10.73,4.7,11.17,10.54v1.43c-.23,2.92-1.47,5.5-3.59,7.46-3.3-.49-7.63-2.82-9.83-5.02-.22-.49-.55-.86-1.06-1.06-.38-.37-.65-.92-1.04-1.15-.51-.3-.47-.69-.75-1.1C1.16,28.07-.07,24.01.01,19.84c.14-.4.13-.83.03-1.24C.93,7.95,9.82-.06,20.29,0s19.44,8.33,19.91,18.81Z"/>
  <path class="cls-1" d="M6.37,34.9l-1.06-1.06c.61-.03,1.03.47,1.06,1.06Z"/>
  <path class="cls-1" d="M24.09,16.69c-.25-.25-.47-.38-.63-.55,0-.33.27-.14.36-.05.14.13.33.44.27.6Z"/>
  <path class="cls-1" d="M20.53,32.45c-.04-.63-.18-1.03-.08-1.63.28.48.08,1.09.08,1.63Z"/>
  <path class="cls-1" d="M19.8,32.45c-.06-.47-.06-.95,0-1.43.04.59.04.94,0,1.43Z"/>
  <path class="cls-1" d="M.01,19.84c.01-.53-.05-.89.03-1.24.29.31.24.93-.03,1.24Z"/>
  <path class="cls-1" d="M40.21,21.05c0-.35-.12-.69-.08-1.22.06-.18.13-.18.2,0-.01.4.12.89-.12,1.22Z"/>
  <path class="cls-1" d="M16.91,15.94c-.26.25-.47.47-.62.64,0-.14.01-.3.1-.42.12-.16.33-.21.52-.21Z"/>
  <path class="cls-1" d="M40.33,19.82h-.2c.02-.26.09-.59.07-1.02.23.24.15.69.13,1.02Z"/>
</svg>